<svg xmlns="http://www.w3.org/2000/svg"
width="150" height="50"><rect width="100%" height="100%" fill="#35d6f5"/><path fill="#2d2424" d="M25.01 15.92Q26.00 17.93 27.73 17.93Q28.17 17.93 28.55 17.79Q28.34 22.35 28.31 28.06Q28.31 33.67 28.48 38.36Q28.14 38.22 27.80 38.22Q26.57 38.22 25.32 39.89Q25.90 33.87 25.86 27.89Q25.83 21.91 25.01 15.92M24.88 40.87Q25.69 39.51 26.74 38.87Q26.74 39.75 26.68 40.70Q27.39 40.30 28.07 40.40Q29.91 40.60 31.13 43.08Q30.08 36.52 30.08 30.03Q30.08 23.30 30.79 16.94Q29.84 18.54 28.89 19.12Q28.89 18.47 28.99 17.25Q28.27 17.62 27.59 17.52Q25.49 17.28 24.57 14.70Q25.56 21.40 25.66 27.79Q25.76 34.18 24.88 40.87Z"/><path fill="#2a2422" d="M54.61 15.92Q55.60 17.93 57.33 17.93Q57.77 17.93 58.15 17.79Q57.94 22.35 57.91 28.06Q57.91 33.67 58.08 38.36Q57.74 38.22 57.40 38.22Q56.17 38.22 54.92 39.89Q55.50 33.87 55.46 27.89Q55.43 21.91 54.61 15.92M54.48 40.87Q55.29 39.51 56.34 38.87Q56.34 39.75 56.28 40.70Q56.99 40.30 57.67 40.40Q59.51 40.60 60.73 43.08Q59.68 36.52 59.68 30.03Q59.68 23.30 60.39 16.94Q59.44 18.54 58.49 19.12Q58.49 18.47 58.59 17.25Q57.87 17.62 57.19 17.52Q55.09 17.28 54.17 14.70Q55.16 21.40 55.26 27.79Q55.36 34.18 54.48 40.87Z"/><path fill="#353130" d="M90.19 39.51L87.51 39.38Q85.37 39.28 84.65 39.17Q83.02 38.87 81.97 38.09Q80.81 36.83 80.61 33.84Q80.57 33.40 80.51 32.31Q80.51 31.93 80.44 30.95Q80.40 30.20 80.44 29.55Q80.61 27.82 81.53 27.14Q83.26 26.12 87.58 25.92Q89.38 25.82 90.09 25.82Q91.42 25.82 92.64 26.09Q92.13 27.21 91.66 28.84Q91.21 28.91 90.77 28.87Q90.67 28.84 90.19 28.74L89.34 28.54Q88.39 28.30 87.85 28.33Q83.63 28.40 83.09 30.91Q82.85 31.93 82.92 32.78Q83.06 35.10 84.16 36.06Q85.26 37.03 87.58 37.07Q88.90 37.10 89.55 36.83L90.47 36.39Q90.94 36.18 91.45 36.11Q91.66 37.71 92.00 38.87Q91.79 39.21 90.19 39.51M93.08 42.13Q93.42 42.17 94.17 42.23Q94.75 42.27 95.05 41.76Q93.97 39.89 93.52 38.02Q93.22 37.98 92.81 37.98Q92.44 37.98 92.10 38.15Q91.79 37.03 91.66 35.77Q91.11 35.71 90.02 36.22Q88.94 36.73 88.49 36.73Q88.09 36.76 87.54 36.73Q86.73 36.69 84.96 36.18Q84.65 35.54 84.69 34.52Q84.86 30.74 89.28 30.27Q89.89 30.27 91.11 30.57Q92.34 30.88 92.98 30.85Q93.35 28.84 93.97 27.21Q93.63 27.11 93.29 27.04L92.61 26.97Q92.78 26.53 93.12 25.75Q91.76 25.44 90.36 25.44Q88.22 25.44 84.31 25.78Q82.58 25.92 81.19 26.80Q80.10 27.65 80.10 29.35Q80.10 29.72 80.20 30.81Q80.27 31.73 80.23 32.27Q80.27 33.97 80.91 37.30Q81.25 38.05 81.70 38.49L81.90 38.70L81.93 38.70Q82.85 40.60 86.35 41.15Q89.17 41.59 91.55 41.83Q92.27 41.89 93.08 42.13Z"/><path fill="#4d504f" d="M115.56 38.60Q112.47 38.70 111.01 38.22Q109.24 37.64 108.97 34.62L110.26 33.67Q110.91 33.19 111.58 32.75Q111.35 34.45 112.77 35.54Q113.93 36.45 115.83 36.28Q119.74 35.91 119.57 32.75Q119.44 30.74 117.09 29.66Q114.54 28.70 112.43 27.62Q110.16 26.43 109.27 22.25Q109.17 21.84 109.07 21.16Q109.00 20.48 109.07 19.97Q109.21 18.54 110.33 18.13Q112.47 17.35 116.04 17.52Q117.67 17.62 118.38 17.69Q119.71 17.86 120.66 18.27Q122.53 18.68 122.73 20.89Q121.82 21.53 119.84 22.72Q119.47 20.04 115.56 20.04Q113.86 20.04 112.98 20.65Q111.92 21.09 112.13 22.69Q112.37 24.66 115.02 26.02Q115.49 26.22 119.50 27.69Q121.85 29.01 122.22 32.92Q122.22 33.06 122.29 34.18Q122.36 36.66 120.97 37.64Q119.30 38.49 115.56 38.60M117.64 40.74Q118.93 40.81 120.69 40.81Q122.56 40.81 123.69 40.43Q124.77 39.68 124.71 38.09Q124.67 37.20 124.33 35.37Q123.52 31.19 121.65 29.52Q120.97 28.13 119.78 27.48L115.02 25.61Q114.75 25.48 114.34 25.27L114.24 24.93L114.20 24.59Q114.07 23.33 115.09 22.79Q115.77 22.28 117.30 22.11Q118.32 22.01 119.33 22.42Q119.40 22.52 119.57 23.27Q119.74 23.13 120.18 22.93Q120.83 23.74 120.93 24.76Q121.00 24.73 124.26 22.42Q124.03 20.07 122.73 19.46Q122.22 18.34 120.93 17.86Q118.89 17.15 116.04 17.15Q111.65 17.15 109.99 17.76Q108.80 18.17 108.70 19.66Q108.66 20.14 109.04 22.11Q109.65 25.48 111.58 27.48Q112.30 29.01 113.64 29.62Q114.98 30.23 118.48 31.63L118.45 31.63L119.06 31.97L119.10 32.04Q119.23 32.41 119.27 32.72Q119.33 35.81 115.83 35.94Q114.78 35.94 113.62 35.61Q113.35 34.89 113.35 34.25Q113.35 34.01 113.39 33.77Q113.01 33.97 112.30 34.42Q111.86 33.43 111.99 32.21Q110.12 33.26 108.70 34.52Q108.73 35.23 108.80 36.15Q109.10 37.71 110.26 38.39Q111.35 40.02 113.62 40.36Q115.02 40.57 117.64 40.74Z"/><path d="M14 32 C83 20,74 17,133 29"
stroke="#cb80e4" fill="transparent"/><path d="M15 23 C99 13,50 40,126 11"
stroke="#db9651" fill="transparent"/><path d="M10 28 C68 27,93 27,136 24"
stroke="#d4e995" fill="transparent"/><path d="M23 34 C67 23,90 23,129 12"
stroke="#6fe6c8" fill="transparent"/></svg>