<svg xmlns="http://www.w3.org/2000/svg"
width="150" height="50"><rect width="100%" height="100%" fill="#eb140e"/><path fill="#efd3b7" d="M27.12 39.41L25.59 39.41Q22.56 39.41 21.71 37.51Q22.77 36.59 24.06 35.61Q24.57 37.54 27.12 37.41Q27.83 37.37 28.75 37.17Q29.57 36.69 29.50 35.84Q29.43 34.86 27.83 34.25L24.43 32.89Q22.36 31.70 22.05 28.54Q21.88 26.63 23.82 26.12Q24.67 25.92 27.32 25.92Q31.67 25.92 32.49 28.16Q31.91 28.64 31.27 29.04L30.01 29.89Q29.57 28.20 26.68 27.99Q26.17 28.03 25.25 28.40Q24.74 28.70 24.74 29.69Q25.05 30.64 26.68 31.25Q27.63 31.59 30.01 32.58Q31.64 33.33 31.81 35.61Q31.88 36.18 31.81 37.07Q31.78 37.85 31.27 38.43Q29.84 39.41 27.12 39.41M31.37 41.72Q32.18 41.76 33.41 41.49Q34.36 40.87 34.19 39.79Q34.12 39.28 33.85 37.85Q33.37 35.23 31.78 34.14Q31.30 32.89 30.18 32.24Q29.06 31.87 26.85 31.02Q26.98 30.61 27.22 30.51Q27.76 30.10 28.34 30.06Q29.06 30.03 29.74 30.27L29.77 30.37L29.84 30.34L30.08 30.40L30.04 30.40Q31.03 30.85 31.20 31.97Q32.32 31.22 34.02 29.72Q33.78 29.08 32.90 28.03Q31.88 25.61 27.32 25.51Q24.50 25.48 22.73 25.99Q21.48 26.50 21.68 28.37Q21.78 29.49 22.60 31.36Q23.07 32.34 23.99 32.99Q24.60 34.31 25.76 34.93Q26.61 35.16 27.46 35.50L29.16 36.18Q28.85 37.17 27.12 37.07Q26.74 37.13 25.66 36.86L25.62 36.69L25.52 36.79Q24.74 36.45 24.16 35.13Q22.26 36.52 21.27 37.54Q21.51 38.32 22.43 39.04L22.29 39.17Q23.58 41.08 27.36 41.42Q28.48 41.52 31.37 41.72Z"/><path fill="#f2a5a5" d="M57.65 19.15Q57.01 19.49 56.87 20.21L56.87 24.80Q57.89 24.80 59.86 24.56Q59.83 24.93 59.79 25.68Q59.79 26.39 59.79 26.80L58.37 26.87Q57.65 26.94 56.87 26.94Q56.87 30.68 56.80 38.15Q54.83 38.22 53.51 38.83Q54.46 33.33 54.36 26.87Q53.78 26.84 52.62 26.60Q52.62 25.71 52.45 23.98Q53.44 24.42 54.29 24.59Q54.25 24.01 53.98 21.80Q53.78 19.97 53.78 19.12Q53.78 17.62 55.04 17.11Q55.78 16.81 60.10 16.06Q60.81 15.92 61.56 15.82Q61.36 16.50 61.22 17.28L60.95 18.68Q60.37 18.54 59.93 18.64Q59.35 18.61 57.65 19.15M62.51 20.17Q62.82 18.20 63.36 15.92Q62.82 16.23 61.66 16.77L62.00 15.24Q60.92 15.41 58.71 15.89Q57.65 15.96 54.80 16.77Q53.40 17.15 53.40 18.81Q53.40 19.09 53.47 19.39Q53.68 20.58 53.78 21.77L53.95 24.15Q52.72 23.81 52.15 23.40Q52.25 24.25 52.28 25.17L52.38 26.94Q53.03 27.11 53.74 27.18L53.74 29.04L54.08 29.04Q53.98 34.52 53.10 39.38Q53.98 38.94 55.04 38.70L54.87 40.53Q55.99 40.30 57.14 40.26Q58.23 40.23 59.35 40.47Q58.61 36.01 58.61 28.91Q59.59 28.91 61.46 28.98L61.46 27.31Q61.46 26.46 61.49 25.61Q61.05 25.68 60.10 25.92Q60.10 25.31 60.20 24.12Q59.45 24.32 58.74 24.39Q58.74 23.13 58.84 21.87Q58.98 21.30 59.45 20.99Q60.30 20.38 61.04 20.31Q61.77 20.24 62.51 20.17Z"/><path fill="#aed1f3" d="M89.96 30.27Q89.85 29.18 88.12 28.54Q87.68 28.37 87.20 28.37Q85.98 28.37 85.03 28.87Q83.80 29.52 83.91 30.61Q84.21 33.12 84.08 35.13Q83.94 37.30 83.29 39.55Q81.39 39.99 80.34 40.36Q81.76 37.13 81.76 33.57Q81.76 28.70 79.45 24.73Q80.54 25.17 82.68 25.82Q82.95 26.46 83.29 27.82Q84.48 25.95 87.95 26.02Q89.28 26.05 89.99 26.16Q92.64 26.50 92.71 28.30Q92.74 29.11 92.57 30.03Q92.17 32.27 92.34 34.96Q92.47 37.51 93.35 39.79Q91.83 39.41 90.30 39.28Q89.89 37.17 89.82 34.79Q89.75 32.34 89.96 30.27M89.96 39.58Q90.67 39.58 91.83 39.79L92.17 40.74Q92.34 41.18 92.54 41.66Q94.58 42.03 96.99 43.08Q94.88 40.30 94.27 36.90Q93.97 34.99 94.07 31.70Q94.07 31.42 94.10 30.71Q94.17 30.17 94.10 29.72Q94.00 28.23 93.01 27.79Q92.88 27.04 92.20 26.50Q90.67 25.58 87.95 25.65Q86.28 25.68 85.54 25.85Q84.25 26.16 83.40 26.97Q83.29 26.50 82.95 25.58Q80.44 24.97 78.81 24.08Q81.53 28.43 81.53 33.57Q81.53 37.47 79.83 40.91Q80.44 40.64 81.59 40.30Q81.15 41.42 80.68 42.30Q81.93 41.89 85.10 41.38Q85.98 36.79 85.88 32.48Q85.84 31.73 86.90 31.08Q87.81 30.51 88.80 30.40Q89.21 30.37 89.58 30.54Q89.45 32.82 89.48 35.10Q89.51 37.34 89.96 39.58Z"/><path fill="#f8cdf8" d="M113.00 32.41Q112.86 34.93 111.81 39.07Q110.21 39.55 108.78 40.26Q111.13 34.01 110.89 27.38Q110.62 20.75 107.86 14.73Q109.63 15.89 111.30 16.40Q113.20 22.62 113.20 28.57Q113.20 29.86 113.13 31.19Q114.15 30.10 118.81 25.68Q119.79 25.68 120.68 25.61L122.51 25.44Q119.73 28.16 115.88 31.53Q118.88 33.97 124.65 39.17Q122.24 38.39 119.59 38.22Q117.35 36.35 113.00 32.41M121.83 40.60Q126.05 41.35 128.84 43.08Q127.78 41.93 125.44 39.79Q125.64 39.85 125.88 39.96Q124.01 38.15 122.00 36.45L118.06 32.99Q122.48 29.21 124.65 26.63Q123.57 26.70 121.36 26.94Q122.78 25.65 123.40 24.90Q120.92 25.34 118.71 25.34Q117.45 26.50 115.00 28.87Q115.00 23.71 114.12 18.51Q113.47 18.34 112.15 18.10Q112.01 17.45 111.60 16.13Q109.26 15.41 107.25 14.02Q110.31 20.11 110.62 27.35Q110.92 34.42 108.24 40.87Q108.85 40.60 110.04 40.02Q109.83 40.77 109.26 42.06Q111.77 41.08 113.68 40.74Q114.19 38.49 114.63 34.69Q116.97 36.73 121.83 40.60Z"/><path d="M5 31 C84 27,90 16,136 26"
stroke="#67a5e4" fill="transparent"/><path d="M5 28 C62 27,94 38,134 38"
stroke="#d84f93" fill="transparent"/><path d="M17 36 C92 23,80 19,132 29"
stroke="#f08da6" fill="transparent"/><path d="M8 27 C68 22,77 22,142 20"
stroke="#e33fba" fill="transparent"/></svg>