<svg xmlns="http://www.w3.org/2000/svg"
width="150" height="50"><rect width="100%" height="100%" fill="#3b257e"/><path fill="#ea5bea" d="M25.08 15.28Q25.86 17.01 27.36 17.32Q27.83 17.42 28.44 17.25Q28.27 22.55 28.21 27.79Q28.17 32.95 28.38 38.26Q28.14 38.22 27.87 38.22Q26.47 38.22 25.32 39.85Q25.93 33.67 25.90 27.55Q25.83 21.40 25.08 15.28M24.94 40.87Q25.90 39.24 26.85 38.83Q26.78 39.75 26.78 40.64Q27.42 40.30 28.14 40.40Q29.94 40.67 31.03 43.08Q29.97 36.35 29.97 29.69Q29.97 22.79 30.72 16.26Q29.84 17.96 28.82 18.51Q28.82 17.59 28.89 16.64Q28.17 17.08 27.49 16.94Q25.52 16.57 24.64 14.02Q25.56 20.72 25.62 27.45Q25.73 34.14 24.94 40.87Z"/><path fill="#57eaa0" d="M56.60 28.74Q54.93 28.74 53.85 29.93Q52.76 31.12 52.62 32.82Q52.45 34.72 53.54 35.62Q54.63 36.52 56.53 36.45Q58.61 36.32 59.45 35.47Q60.37 34.18 60.27 32.55Q60.17 30.88 59.20 29.81Q58.23 28.74 56.60 28.74M56.57 20.31Q55.31 20.21 54.12 20.65Q52.96 21.36 53.17 23.03Q53.61 26.36 56.60 26.36Q57.99 26.53 58.88 25.51Q59.76 24.49 59.79 23.10Q59.86 21.53 59.22 20.99Q57.72 20.24 56.57 20.31M56.33 38.66L53.61 38.66Q52.25 38.66 51.06 37.88Q49.84 36.86 49.97 34.31Q50.38 28.20 53.61 27.31Q51.57 26.50 50.38 21.70Q50.07 20.45 50.14 19.73Q50.41 17.83 53.71 17.79Q57.48 17.73 58.78 17.90Q62.21 18.37 62.62 20.17Q62.72 20.72 62.72 21.06Q62.72 21.67 62.55 22.21Q62.00 25.99 59.39 27.35Q62.51 28.06 62.96 32.78Q62.96 32.92 62.99 34.08Q63.06 36.52 61.63 37.47Q60.41 38.26 56.33 38.66M58.37 40.74L61.36 40.81Q62.89 40.87 64.25 40.23Q65.27 39.58 65.34 37.92Q65.37 36.93 65.03 35.20Q64.21 31.05 62.34 29.38L62.17 29.04L62.00 28.81L61.87 28.57Q63.33 27.35 64.15 23.64Q64.15 23.30 64.21 22.55Q64.28 21.94 64.21 21.40Q64.08 20.11 63.02 19.66L63.06 19.66L62.89 19.56Q62.65 18.92 61.60 18.20L61.63 18.20Q59.86 17.59 56.23 17.42Q54.83 17.32 53.61 17.42Q52.89 17.45 51.74 17.59Q50.01 17.93 49.80 19.39Q49.77 19.83 49.80 20.55Q49.90 21.02 50.41 23.13Q51.13 26.02 52.69 27.21L52.76 27.28Q50.28 28.43 49.80 33.06Q49.63 35.03 49.63 35.84Q49.70 37.44 50.75 38.26Q50.86 38.32 51.09 38.49Q52.01 40.53 58.37 40.74M58.06 30.85Q58.88 30.78 59.66 31.19Q60.00 32.07 59.96 32.55Q60.00 32.82 60.00 33.09Q60.00 35.20 57.96 35.94Q57.25 36.22 56.53 36.11Q55.55 36.22 54.53 35.81Q54.29 35.23 54.36 34.35Q54.49 32.92 55.56 31.83Q56.63 30.74 58.06 30.85M58.27 22.38Q58.98 22.28 59.45 22.42L59.45 23.13Q59.45 24.39 58.64 25.29Q57.82 26.19 56.60 26.02Q55.72 26.02 55.34 25.82Q55.31 25.58 55.21 24.97Q54.97 23.71 56.06 22.96Q57.01 22.35 58.27 22.38Z"/><path fill="#b7da4d" d="M88.82 38.26Q87.08 38.22 85.28 38.39Q85.86 33.70 85.86 29.38Q85.89 25.03 85.32 20.38Q81.20 20.00 78.35 18.51L77.70 16.94Q77.53 16.50 76.99 15.41Q81.51 17.79 86.88 17.96Q92.11 18.10 96.97 16.26Q96.36 17.56 95.79 19.19Q92.56 20.34 88.75 20.51Q88.55 24.97 88.55 29.38Q88.55 33.80 88.82 38.26M97.59 15.65Q92.39 17.69 86.85 17.52Q80.90 17.35 76.34 14.70Q77.02 15.86 78.18 18.78Q78.76 19.05 79.88 19.56Q80.12 20.21 80.42 21.57Q82.46 22.31 85.18 22.52Q85.52 25.82 85.52 29.18Q85.52 33.97 84.81 38.77Q86.30 38.66 86.78 38.66Q86.78 38.94 86.73 39.53Q86.68 40.13 86.68 40.43Q87.73 40.36 89.09 40.43Q89.90 40.47 91.54 40.60Q90.45 36.22 90.35 31.59Q90.21 26.84 90.69 22.45Q94.22 21.97 97.04 20.89Q97.65 18.75 98.57 16.91Q97.38 17.52 96.67 17.79Q97.08 16.67 97.59 15.65Z"/><path fill="#e8b27c" d="M114.63 25.07Q115.37 25.34 117.14 25.34L117.18 31.76Q117.21 35.57 117.31 38.15Q117.01 38.05 116.67 38.05Q115.37 38.05 114.08 39.24Q114.80 32.44 114.63 25.07M113.64 17.96Q115.00 17.01 115.65 16.16Q116.60 17.83 117.86 19.32Q117.14 20.68 115.92 22.59Q115.17 21.53 114.66 20.34L113.64 17.96M113.61 40.02Q114.49 39.04 115.61 38.60Q115.61 39.21 115.51 40.43Q116.12 40.23 116.70 40.23Q118.67 40.23 119.93 42.00Q118.81 35.44 118.88 26.36Q118.20 26.53 117.45 26.63L117.45 24.97Q116.53 25.07 115.82 25Q115.07 24.93 114.29 24.49Q114.39 26.29 114.39 28.13Q114.39 34.42 113.61 40.02M115.92 23.13L116.02 22.89L116.16 22.76Q116.53 23.47 117.45 24.80Q118.64 22.69 119.83 19.53Q119.05 18.85 117.65 17.42Q117.52 17.56 117.28 17.96Q116.43 16.84 115.61 15.55Q114.36 17.05 113.30 17.35Q114.29 20.45 115.92 23.13Z"/><path d="M9 24 C69 30,69 28,127 26"
stroke="#5073dc" fill="transparent"/></svg>